<svg height="56" viewBox="0 0 56 56" width="56" xmlns="http://www.w3.org/2000/svg"><path d="m27.9999 51.9063c13.0547 0 23.9064-10.8282 23.9064-23.9063 0-13.0547-10.8751-23.9063-23.9298-23.9063-13.0782 0-23.8828 10.8516-23.8828 23.9063 0 13.0781 10.8281 23.9063 23.9062 23.9063zm0-3.9844c-11.0625 0-19.8985-8.8594-19.8985-19.9219 0-11.0391 8.8126-19.9219 19.8751-19.9219 11.039 0 19.9218 8.8828 19.9454 19.9219.0235 11.0625-8.8829 19.9219-19.922 19.9219zm-9.6328-7.6641c.375 0 .7265-.1406.9609-.375l8.086-8.086c.2343-.2109.4218-.328.6094-.328.164 0 .3515.1171.5624.328l8.0625 8.086c.2344.2344.6329.375.9844.375.7735 0 1.2891-.5156 1.2891-1.289 0-.3282-.0938-.6329-.2109-.961l-8.9766-22.8984c-.375-.961-.961-1.4063-1.7109-1.4063-.7969 0-1.3594.4453-1.7344 1.4063l-9 22.8984c-.1172.3281-.1876.6328-.1876.961 0 .7734.4922 1.289 1.2657 1.289z"/></svg>